<svg id="visual" viewBox="0 0 1920 1080" width="1920" height="1080" xmlns="http://www.w3.org/2000/svg" xmlns:xlink="http://www.w3.org/1999/xlink" version="1.1"><rect x="0" y="0" width="1920" height="1080" fill="#FFFFFF"></rect><path d="M0 76L26.7 74.8C53.3 73.7 106.7 71.3 160 70.8C213.3 70.3 266.7 71.7 320 73C373.3 74.3 426.7 75.7 480 76.2C533.3 76.7 586.7 76.3 640 75C693.3 73.7 746.7 71.3 800 69.3C853.3 67.3 906.7 65.7 960 66.7C1013.3 67.7 1066.7 71.3 1120 71.8C1173.3 72.3 1226.7 69.7 1280 70.2C1333.3 70.7 1386.7 74.3 1440 74.7C1493.3 75 1546.7 72 1600 72C1653.3 72 1706.7 75 1760 73.3C1813.3 71.7 1866.7 65.3 1893.3 62.2L1920 59L1920 0L1893.3 0C1866.7 0 1813.3 0 1760 0C1706.7 0 1653.3 0 1600 0C1546.7 0 1493.3 0 1440 0C1386.7 0 1333.3 0 1280 0C1226.7 0 1173.3 0 1120 0C1066.7 0 1013.3 0 960 0C906.7 0 853.3 0 800 0C746.7 0 693.3 0 640 0C586.7 0 533.3 0 480 0C426.7 0 373.3 0 320 0C266.7 0 213.3 0 160 0C106.7 0 53.3 0 26.7 0L0 0Z" fill="#0285c7"></path><path d="M0 31L26.7 32.7C53.3 34.3 106.7 37.7 160 40C213.3 42.3 266.7 43.7 320 44C373.3 44.3 426.7 43.7 480 41.7C533.3 39.7 586.7 36.3 640 33.5C693.3 30.7 746.7 28.3 800 27.2C853.3 26 906.7 26 960 26.7C1013.3 27.3 1066.7 28.7 1120 31.7C1173.3 34.7 1226.7 39.3 1280 39.5C1333.3 39.7 1386.7 35.3 1440 32.7C1493.3 30 1546.7 29 1600 31C1653.3 33 1706.7 38 1760 37.5C1813.3 37 1866.7 31 1893.3 28L1920 25L1920 0L1893.3 0C1866.7 0 1813.3 0 1760 0C1706.7 0 1653.3 0 1600 0C1546.7 0 1493.3 0 1440 0C1386.7 0 1333.3 0 1280 0C1226.7 0 1173.3 0 1120 0C1066.7 0 1013.3 0 960 0C906.7 0 853.3 0 800 0C746.7 0 693.3 0 640 0C586.7 0 533.3 0 480 0C426.7 0 373.3 0 320 0C266.7 0 213.3 0 160 0C106.7 0 53.3 0 26.7 0L0 0Z" fill="#b8b3be"></path></svg>