<svg id="visual" viewBox="0 0 1920 1080" width="1920" height="1080" xmlns="http://www.w3.org/2000/svg" xmlns:xlink="http://www.w3.org/1999/xlink" version="1.1"><rect x="0" y="0" width="1920" height="1080" fill="#FFFFFF"></rect><path d="M0 862L35.5 861.8C71 861.7 142 861.3 213.2 856.7C284.3 852 355.7 843 426.8 842.7C498 842.3 569 850.7 640 855C711 859.3 782 859.7 853.2 852.3C924.3 845 995.7 830 1066.8 826.7C1138 823.3 1209 831.7 1280 829.8C1351 828 1422 816 1493.2 815.3C1564.3 814.7 1635.7 825.3 1706.8 825.8C1778 826.3 1849 816.7 1884.5 811.8L1920 807L1920 1081L1884.5 1081C1849 1081 1778 1081 1706.8 1081C1635.7 1081 1564.3 1081 1493.2 1081C1422 1081 1351 1081 1280 1081C1209 1081 1138 1081 1066.8 1081C995.7 1081 924.3 1081 853.2 1081C782 1081 711 1081 640 1081C569 1081 498 1081 426.8 1081C355.7 1081 284.3 1081 213.2 1081C142 1081 71 1081 35.5 1081L0 1081Z" fill="#0285c7"></path><path d="M0 919L35.5 914.8C71 910.7 142 902.3 213.2 898.8C284.3 895.3 355.7 896.7 426.8 903.7C498 910.7 569 923.3 640 923.3C711 923.3 782 910.7 853.2 910.3C924.3 910 995.7 922 1066.8 922.7C1138 923.3 1209 912.7 1280 909.5C1351 906.3 1422 910.7 1493.2 910.5C1564.3 910.3 1635.7 905.7 1706.8 902.7C1778 899.7 1849 898.3 1884.5 897.7L1920 897L1920 1081L1884.5 1081C1849 1081 1778 1081 1706.8 1081C1635.7 1081 1564.3 1081 1493.2 1081C1422 1081 1351 1081 1280 1081C1209 1081 1138 1081 1066.8 1081C995.7 1081 924.3 1081 853.2 1081C782 1081 711 1081 640 1081C569 1081 498 1081 426.8 1081C355.7 1081 284.3 1081 213.2 1081C142 1081 71 1081 35.5 1081L0 1081Z" fill="#7590c5"></path><path d="M0 924L35.5 929.5C71 935 142 946 213.2 948.7C284.3 951.3 355.7 945.7 426.8 948C498 950.3 569 960.7 640 960.8C711 961 782 951 853.2 944.8C924.3 938.7 995.7 936.3 1066.8 942.8C1138 949.3 1209 964.7 1280 973.7C1351 982.7 1422 985.3 1493.2 984.3C1564.3 983.3 1635.7 978.7 1706.8 977.5C1778 976.3 1849 978.7 1884.5 979.8L1920 981L1920 1081L1884.5 1081C1849 1081 1778 1081 1706.8 1081C1635.7 1081 1564.3 1081 1493.2 1081C1422 1081 1351 1081 1280 1081C1209 1081 1138 1081 1066.8 1081C995.7 1081 924.3 1081 853.2 1081C782 1081 711 1081 640 1081C569 1081 498 1081 426.8 1081C355.7 1081 284.3 1081 213.2 1081C142 1081 71 1081 35.5 1081L0 1081Z" fill="#a09fc1"></path><path d="M0 1046L35.5 1039.7C71 1033.3 142 1020.7 213.2 1014.5C284.3 1008.3 355.7 1008.7 426.8 1004.8C498 1001 569 993 640 992.3C711 991.7 782 998.3 853.2 1005.2C924.3 1012 995.7 1019 1066.8 1018C1138 1017 1209 1008 1280 1009.8C1351 1011.7 1422 1024.3 1493.2 1023C1564.3 1021.7 1635.7 1006.3 1706.8 1001.2C1778 996 1849 1001 1884.5 1003.5L1920 1006L1920 1081L1884.5 1081C1849 1081 1778 1081 1706.8 1081C1635.7 1081 1564.3 1081 1493.2 1081C1422 1081 1351 1081 1280 1081C1209 1081 1138 1081 1066.8 1081C995.7 1081 924.3 1081 853.2 1081C782 1081 711 1081 640 1081C569 1081 498 1081 426.8 1081C355.7 1081 284.3 1081 213.2 1081C142 1081 71 1081 35.5 1081L0 1081Z" fill="#b8b3be"></path></svg>